<?xml version="1.0" encoding="UTF-8" standalone="no"?>
<svg width="18px" height="9px" viewBox="0 0 18 9" version="1.1" xmlns="http://www.w3.org/2000/svg" xmlns:xlink="http://www.w3.org/1999/xlink">
    <!-- Generator: Sketch 41 (35326) - http://www.bohemiancoding.com/sketch -->
    <title>boulders</title>
    <desc>Created with Sketch.</desc>
    <defs></defs>
    <g id="Page-1" stroke="none" stroke-width="1" fill="none" fill-rule="evenodd">
        <g id="boulders" stroke="#1A1918">
            <path d="M5.5415,0.676851 C5.104,0.176851 4.354,0.551851 4.0415,0.676851 C3.729,0.801851 3.479,0.801851 3.729,1.301851 C3.979,1.801851 4.1665,1.989351 4.729,2.114351 C5.2915,2.239351 5.7915,2.614351 5.979,2.051851 C6.1665,1.489351 5.979,1.176851 5.5415,0.676851 Z" id="Stroke-543" stroke-width="0.2834"></path>
            <path d="M2.354,3.801851 C2.5415,3.239351 1.979,3.051851 1.604,3.051851 C1.229,3.051851 0.7915,3.114351 0.729,3.801851 C0.6665,4.489351 0.4165,5.114351 1.0415,5.051851 C1.6665,4.989351 2.0415,4.926851 2.104,4.551851 C2.1665,4.176851 2.1665,4.364351 2.354,3.801851 Z" id="Stroke-544" stroke-width="0.2834"></path>
            <path d="M3.604,6.364351 C3.229,5.864351 2.479,6.114351 2.1665,6.301851 C1.854,6.489351 1.479,6.614351 1.9165,7.114351 C2.354,7.614351 2.479,8.051851 3.354,7.926851 C4.229,7.801851 3.9165,7.489351 3.854,7.176851 C3.7915,6.864351 3.979,6.864351 3.604,6.364351 Z" id="Stroke-545" stroke-width="0.2834"></path>
            <path d="M5.4165,4.489351 C5.104,4.739351 4.354,4.989351 4.5415,5.614351 C4.729,6.239351 5.2915,6.614351 5.7915,6.551851 C6.2915,6.489351 7.1665,5.739351 7.1665,5.739351 C7.1665,5.739351 7.979,5.239351 7.354,4.676851 C6.729,4.114351 5.729,4.239351 5.4165,4.489351 Z" id="Stroke-546" stroke-width="0.2834"></path>
            <path d="M10.229,1.676851 C9.729,1.176851 8.9165,1.426851 8.6665,1.676851 C8.4165,1.926851 8.229,2.364351 8.6665,2.614351 C9.104,2.864351 9.479,3.301851 9.979,3.176851 C10.479,3.051851 10.854,2.864351 10.729,2.489351 C10.604,2.114351 10.729,2.176851 10.229,1.676851 Z" id="Stroke-547" stroke-width="0.2834"></path>
            <path d="M13.2915,2.426851 C12.6665,2.489351 12.354,3.239351 12.354,3.739351 C12.354,4.239351 11.7915,4.801851 12.604,4.614351 C13.4165,4.426851 14.0415,3.864351 14.104,3.426851 C14.1665,2.989351 14.229,2.676851 13.9165,2.614351 C13.604,2.551851 13.9165,2.364351 13.2915,2.426851 Z" id="Stroke-548" stroke-width="0.2834"></path>
            <path d="M15.854,0.676851 C15.229,0.926851 14.9165,1.176851 15.229,1.614351 C15.5415,2.051851 16.104,2.301851 16.604,2.301851 C17.104,2.301851 17.6665,1.864351 17.354,1.489351 C17.0415,1.114351 16.7915,0.739351 16.479,0.614351 C16.1665,0.489351 16.479,0.426851 15.854,0.676851 Z" id="Stroke-549" stroke-width="0.2834"></path>
            <path d="M11.479,6.051851 C10.729,5.551851 10.354,6.051851 10.0415,6.301851 C9.729,6.551851 10.0415,6.989351 10.354,7.301851 C10.6665,7.614351 10.6665,8.364351 11.4165,7.739351 C12.1665,7.114351 12.229,6.551851 11.479,6.051851 Z" id="Stroke-550" stroke-width="0.2834"></path>
            <path d="M14.229,5.739351 C13.7915,6.239351 13.5415,6.551851 14.0415,7.051851 C14.5415,7.551851 15.1665,7.676851 15.7915,7.364351 C16.4165,7.051851 16.854,6.801851 16.6665,6.114351 C16.479,5.426851 16.6665,5.176851 15.7915,5.176851 C14.9165,5.176851 14.6665,5.239351 14.229,5.739351 Z" id="Stroke-551" stroke-width="0.2834"></path>
            <polyline id="Stroke-552" stroke-width="0.4252" points="0.7915 4.895551 1.8852 4.739351 2.3227 3.458051"></polyline>
            <path d="M4.0727,1.739351 L5.6977,2.301851 C5.6977,2.301851 5.9165,2.051851 5.9477,1.801851" id="Stroke-553" stroke-width="0.4252"></path>
            <path d="M2.479,7.708051 C2.479,7.708051 3.1665,7.958051 3.479,7.833051 C3.7915,7.708051 3.8227,7.520551 3.7915,7.301851 C3.7602,7.083051 3.7602,6.676851 3.7602,6.676851" id="Stroke-554" stroke-width="0.4252"></path>
            <path d="M4.9165,6.114351 C4.9165,6.114351 5.1352,6.426851 5.6352,6.426851 C6.1352,6.426851 6.3227,6.114351 6.6665,5.926851 C7.0102,5.739351 7.604,5.051851 7.604,5.051851" id="Stroke-555" stroke-width="0.4252"></path>
            <path d="M9.104,2.926851 C9.479,2.989351 9.9165,3.145551 10.229,2.989351 C10.5415,2.833051 10.7602,2.801851 10.6977,2.364351" id="Stroke-556" stroke-width="0.4252"></path>
            <path d="M10.6665,7.583051 C10.7915,7.801851 11.1352,7.958051 11.354,7.739351 C11.5727,7.520551 11.7915,7.145551 11.8852,6.989351 C11.979,6.833051 11.8227,6.301851 11.8227,6.301851" id="Stroke-557" stroke-width="0.4252"></path>
            <path d="M12.2602,4.458051 C12.6352,4.489351 13.2915,4.395551 13.5727,4.083051 C13.854,3.770551 14.104,3.239351 14.1352,2.958051" id="Stroke-558" stroke-width="0.4252"></path>
            <path d="M15.854,2.051851 C16.104,2.051851 16.854,2.270551 17.104,2.083051 C17.354,1.895551 17.3852,1.676851 17.3227,1.395551" id="Stroke-559" stroke-width="0.4252"></path>
            <path d="M14.3852,7.270551 C14.6977,7.301851 15.2602,7.520551 15.6352,7.301851 C16.0102,7.083051 16.2915,6.989351 16.5102,6.770551 C16.729,6.551851 16.6352,5.926851 16.6352,5.926851" id="Stroke-560" stroke-width="0.4252"></path>
        </g>
    </g>
</svg>