<?xml version="1.0" encoding="UTF-8" standalone="no"?>
<svg width="37px" height="4px" viewBox="0 0 37 4" version="1.1" xmlns="http://www.w3.org/2000/svg" xmlns:xlink="http://www.w3.org/1999/xlink">
    <!-- Generator: Sketch 41 (35326) - http://www.bohemiancoding.com/sketch -->
    <title>cliff</title>
    <desc>Created with Sketch.</desc>
    <defs></defs>
    <g id="Page-1" stroke="none" stroke-width="1" fill="none" fill-rule="evenodd">
        <g id="cliff" stroke="#1A1918" stroke-width="0.2834">
            <path d="M1.604,3.739351 C1.104,3.239351 0.7915,2.864351 0.729,2.489351 C0.6665,2.114351 0.604,1.926851 1.104,1.864351 C1.604,1.801851 1.979,1.989351 2.229,1.676851 C2.479,1.364351 2.729,1.051851 3.1665,1.239351 C3.604,1.426851 3.979,1.364351 4.5415,1.364351 C5.104,1.364351 5.729,1.426851 6.0415,1.301851 C6.354,1.176851 6.9165,0.989351 7.229,1.239351 C7.5415,1.489351 7.854,1.426851 7.979,1.114351 C8.104,0.801851 8.5415,0.676851 8.979,0.739351 C9.4165,0.801851 9.5415,0.676851 10.104,0.801851 C10.6665,0.926851 11.0415,0.864351 11.2915,0.676851 C11.5415,0.489351 12.104,0.551851 12.354,0.426851 C12.604,0.301851 12.7915,0.551851 12.6665,0.926851 C12.5415,1.301851 12.6665,2.364351 12.6665,2.364351" id="Stroke-733"></path>
            <polyline id="Stroke-734" points="2.229 1.708051 2.604 2.770551 2.0727 1.833051"></polyline>
            <path d="M4.0102,1.395551 C3.8852,1.676851 3.8852,2.708051 4.4477,3.270551" id="Stroke-735"></path>
            <path d="M3.5415,3.145551 L4.4477,3.239351" id="Stroke-736"></path>
            <path d="M3.354,2.426851 L4.0727,2.489351" id="Stroke-737"></path>
            <path d="M3.4477,1.833051 L3.979,1.895551" id="Stroke-738"></path>
            <path d="M5.7915,1.364351 L5.8227,2.926851" id="Stroke-739"></path>
            <path d="M7.5415,1.426851 C7.5415,1.426851 7.854,2.176851 7.7915,2.645551" id="Stroke-740"></path>
            <path d="M9.3227,0.770551 C9.1977,1.145551 9.1665,1.926851 9.2602,2.333051" id="Stroke-741"></path>
            <path d="M10.6665,0.926851 L10.4165,2.145551" id="Stroke-742"></path>
            <path d="M10.5415,1.426851 L11.1665,0.708051" id="Stroke-743"></path>
            <path d="M9.1977,1.333051 L9.0102,0.739351" id="Stroke-744"></path>
            <path d="M7.6977,1.989351 L7.7915,1.364351" id="Stroke-745"></path>
            <path d="M5.7915,2.083051 L5.5415,1.364351" id="Stroke-746"></path>
            <path d="M13.5415,2.114351 C13.5415,2.114351 13.6665,1.208051 13.854,0.833051 C14.0415,0.458051 14.2602,0.145551 14.5102,0.426851 C14.7602,0.708051 15.0102,0.645551 15.479,0.801851 C15.9477,0.958051 16.229,1.020551 16.0415,1.333051 C15.854,1.645551 15.9165,1.926851 15.854,2.270551" id="Stroke-747"></path>
            <path d="M14.7602,1.520551 C14.854,1.176851 14.6665,0.895551 14.979,0.708051" id="Stroke-748"></path>
            <path d="M12.6352,1.114351 L13.729,1.083051" id="Stroke-749"></path>
            <path d="M12.6352,1.926851 L13.5727,1.926851" id="Stroke-750"></path>
            <path d="M17.729,2.708051 C17.729,2.708051 17.0415,2.051851 16.729,1.770551 C16.4165,1.489351 16.229,1.083051 16.6352,1.083051 C17.0415,1.083051 17.0415,0.926851 17.2915,0.770551 C17.5415,0.614351 17.6977,0.614351 18.0727,0.614351 C18.4477,0.614351 18.5102,0.676851 18.6665,0.395551 C18.8227,0.114351 18.8852,0.020551 19.4165,0.114351 C19.9477,0.208051 20.354,0.114351 20.7915,0.301851 C21.229,0.489351 21.729,0.676851 22.3227,0.520551 C22.9165,0.364351 23.1665,0.208051 23.4165,0.489351 C23.6665,0.770551 23.8227,1.145551 24.0102,0.676851 C24.1977,0.208051 24.3852,0.020551 24.6977,0.176851 C25.0102,0.333051 25.5415,0.333051 25.8852,0.364351 C26.229,0.395551 27.104,0.426851 27.479,0.426851 C27.854,0.426851 27.979,0.364351 28.2915,0.270551 C28.604,0.176851 28.8227,0.426851 28.7915,0.770551 C28.7602,1.114351 28.7602,1.833051 28.7602,1.833051 L29.0415,2.176851" id="Stroke-751"></path>
            <path d="M15.9477,1.551851 L16.5415,1.551851" id="Stroke-752"></path>
            <path d="M16.104,1.208051 L16.4165,1.270551" id="Stroke-753"></path>
            <path d="M18.3227,0.645551 C18.3227,0.645551 18.5415,1.426851 18.5102,1.770551" id="Stroke-754"></path>
            <path d="M18.4477,1.114351 L18.604,0.520551" id="Stroke-755"></path>
            <path d="M19.8852,0.145551 C19.6977,0.708051 19.9165,1.739351 20.3852,2.270551" id="Stroke-756"></path>
            <path d="M19.5727,2.176851 L20.354,2.145551" id="Stroke-757"></path>
            <path d="M19.229,1.458051 L19.979,1.458051" id="Stroke-758"></path>
            <path d="M19.2602,0.739351 L19.7915,0.770551" id="Stroke-759"></path>
            <path d="M21.854,0.520551 C21.9165,0.926851 21.9165,1.708051 21.6665,2.114351" id="Stroke-760"></path>
            <path d="M21.8852,1.051851 L21.6352,0.489351" id="Stroke-761"></path>
            <path d="M23.7915,0.833051 C23.729,1.145551 23.5727,1.708051 23.729,2.083051" id="Stroke-762"></path>
            <path d="M25.2915,0.364351 C25.229,0.676851 25.104,1.676851 25.1665,1.926851" id="Stroke-763"></path>
            <path d="M25.1665,1.020551 L25.0415,0.239351" id="Stroke-764"></path>
            <path d="M23.6977,1.364351 L24.0727,0.676851" id="Stroke-765"></path>
            <path d="M26.6352,0.489351 C26.6352,0.489351 26.354,1.114351 26.479,1.458051" id="Stroke-766"></path>
            <path d="M26.854,0.458051 C27.1977,0.614351 27.3852,0.708051 27.5727,0.583051 C27.7602,0.458051 28.0727,0.239351 28.3227,0.239351" id="Stroke-767"></path>
            <path d="M22.6352,0.489351 L23.4477,0.520551" id="Stroke-768"></path>
            <path d="M10.479,0.770551 C10.479,0.770551 11.1352,0.551851 11.3852,0.489351 C11.6352,0.426851 12.5102,0.395551 12.5102,0.395551" id="Stroke-769"></path>
            <path d="M29.9165,1.770551 C29.9165,1.770551 30.0727,0.614351 30.104,0.395551 C30.1352,0.176851 30.4165,0.114351 30.8227,0.114351 C31.229,0.114351 31.7602,0.239351 31.979,0.395551 C32.1977,0.551851 32.729,0.645551 32.979,0.645551 C33.229,0.645551 33.5727,0.551851 34.1977,0.426851 C34.8227,0.301851 35.3227,0.333051 35.729,0.333051 C36.1352,0.333051 36.1665,0.489351 36.0415,0.833051 C35.9165,1.176851 35.854,1.489351 35.9165,1.739351 C35.979,1.989351 36.0727,2.489351 36.0727,2.489351 L35.354,2.395551" id="Stroke-770"></path>
            <path d="M35.2602,1.676851 L35.9477,1.645551" id="Stroke-771"></path>
            <path d="M35.2915,0.864351 L35.979,0.958051" id="Stroke-772"></path>
            <path d="M34.4477,0.458051 L34.5102,1.708051" id="Stroke-773"></path>
            <path d="M34.1352,0.520551 L34.479,1.051851" id="Stroke-774"></path>
            <path d="M32.8227,0.583051 C32.8227,0.583051 33.9165,0.270551 34.1352,0.270551 C34.354,0.270551 35.0415,0.333051 35.0415,0.333051" id="Stroke-775"></path>
            <path d="M31.1352,0.145551 L31.0727,0.864351" id="Stroke-776"></path>
            <path d="M28.7915,1.770551 L29.979,1.676851" id="Stroke-777"></path>
            <path d="M28.7915,0.958051 L30.0102,0.895551" id="Stroke-778"></path>
            <path d="M32.604,0.583051 C32.604,0.895551 32.6665,1.395551 32.854,1.645551 C33.0415,1.895551 33.5102,2.551851 33.5102,2.551851" id="Stroke-779"></path>
            <path d="M32.104,1.801851 C31.9477,1.614351 31.729,1.426851 31.9477,1.333051 C32.1665,1.239351 32.604,0.739351 32.604,0.739351" id="Stroke-780"></path>
        </g>
    </g>
</svg>